<svg width="1440" height="159" viewBox="0 0 1440 159" fill="none" xmlns="http://www.w3.org/2000/svg">
<g clip-path="url(#clip0_14743_116206)">
<rect width="1440" height="159" fill="#243464"/>
<path d="M77.323 50.8599L71 62.5145L75.8778 68.1754L76.6004 67.0099L78.2263 87.8218C78.3709 88.0882 85.0311 86.9339 88.3432 86.3234C88.9213 85.7906 85.4527 62.903 83.6461 51.5259C82.0563 49.1283 78.7683 50.0829 77.323 50.8599Z" stroke="#5F6574" stroke-width="1.52315"/>
<path d="M903.323 0.859871L897 12.5145L901.878 18.1754L902.6 17.0099L904.226 37.8218C904.371 38.0882 911.031 36.9339 914.343 36.3234C914.921 35.7906 911.453 12.903 909.646 1.52585C908.056 -0.871681 904.768 0.0828924 903.323 0.859871Z" stroke="#5F6574" stroke-width="1.52315"/>
<path d="M369.323 131.86L363 143.515L367.878 149.175L368.6 148.01L370.226 168.822C370.371 169.088 377.031 167.934 380.343 167.323C380.921 166.791 377.453 143.903 375.646 132.526C374.056 130.128 370.768 131.083 369.323 131.86Z" stroke="#5F6574" stroke-width="1.52315"/>
<path d="M375.952 5.00621C367.151 5.27307 365.684 12.9008 366.05 16.6814C368.19 17.1261 372.578 17.9823 373.018 17.8489C373.458 17.7154 372.651 15.1803 374.118 14.6799H375.218C384.753 16.8481 371.368 37.6966 370.268 39.3645C369.388 40.6988 369.901 45.3689 370.268 47.5371C370.854 48.2043 386.525 45.7024 394.287 44.3681V35.028L382.552 36.3623L385.486 28.5233C389.887 17.8489 386.953 4.67263 375.952 5.00621Z" stroke="#5F6574" stroke-width="1.52315" stroke-linejoin="round"/>
<path d="M1022.95 95.0062C1014.15 95.2731 1012.68 102.901 1013.05 106.681C1015.19 107.126 1019.58 107.982 1020.02 107.849C1020.46 107.715 1019.65 105.18 1021.12 104.68H1022.22C1031.75 106.848 1018.37 127.697 1017.27 129.364C1016.39 130.699 1016.9 135.369 1017.27 137.537C1017.85 138.204 1033.53 135.702 1041.29 134.368V125.028L1029.55 126.362L1032.49 118.523C1036.89 107.849 1033.95 94.6726 1022.95 95.0062Z" stroke="#5F6574" stroke-width="1.52315" stroke-linejoin="round"/>
<path d="M685.739 98.0501C675.799 98.9861 675.355 105.572 676.375 108.747C676.916 109.472 678.932 110.486 682.678 108.747C687.36 106.574 686.64 111.422 686.64 113.427C686.64 115.433 682.318 117.439 681.958 118.943C681.597 120.448 684.479 125.462 685.739 125.295C687 125.128 692.582 125.295 693.122 130.142C693.662 134.989 687.36 134.655 686.64 134.655C685.919 134.655 682.498 132.984 680.877 133.986C679.581 134.789 680.337 138.109 680.877 139.669C688.98 145.52 699.425 139.335 701.045 130.142C702.666 120.949 693.662 118.275 693.842 117.439C694.023 116.603 698.164 96.88 685.739 98.0501Z" stroke="#5F6574" stroke-width="1.52315"/>
<path d="M1405.74 111.05C1395.8 111.986 1395.35 118.572 1396.38 121.747C1396.92 122.472 1398.93 123.486 1402.68 121.747C1407.36 119.574 1406.64 124.422 1406.64 126.427C1406.64 128.433 1402.32 130.439 1401.96 131.943C1401.6 133.448 1404.48 138.462 1405.74 138.295C1407 138.128 1412.58 138.295 1413.12 143.142C1413.66 147.989 1407.36 147.655 1406.64 147.655C1405.92 147.655 1402.5 145.984 1400.88 146.986C1399.58 147.789 1400.34 151.109 1400.88 152.669C1408.98 158.52 1419.42 152.335 1421.05 143.142C1422.67 133.949 1413.66 131.275 1413.84 130.439C1414.02 129.603 1418.16 109.88 1405.74 111.05Z" stroke="#5F6574" stroke-width="1.52315"/>
<path d="M1171.74 -16.9499C1161.8 -16.0139 1161.35 -9.42838 1162.38 -6.25261C1162.92 -5.52831 1164.93 -4.51428 1168.68 -6.25261C1173.36 -8.42553 1172.64 -3.57826 1172.64 -1.57251C1172.64 0.433245 1168.32 2.43898 1167.96 3.94331C1167.6 5.44764 1170.48 10.462 1171.74 10.2949C1173 10.1277 1178.58 10.2949 1179.12 15.1421C1179.66 19.9893 1173.36 19.655 1172.64 19.655C1171.92 19.655 1168.5 17.9836 1166.88 18.9864C1165.58 19.7887 1166.34 23.1094 1166.88 24.6694C1174.98 30.5195 1185.42 24.3351 1187.05 15.1421C1188.67 5.94906 1179.66 3.27471 1179.84 2.43898C1180.02 1.60325 1184.16 -18.12 1171.74 -16.9499Z" stroke="#5F6574" stroke-width="1.52315"/>
</g>
<defs>
<clipPath id="clip0_14743_116206">
<rect width="1440" height="159" fill="white"/>
</clipPath>
</defs>
</svg>
