<svg xmlns="http://www.w3.org/2000/svg" width="20" height="20" viewBox="0 0 20 20" >
    <path d="M4.99984 12.5003C4.5396 12.5003 4.1665 12.1272 4.1665 11.667C4.1665 11.2068 4.5396 10.8337 4.99984 10.8337C5.46007 10.8337 5.83317 11.2068 5.83317 11.667C5.83317 12.1272 5.46007 12.5003 4.99984 12.5003Z"/>
    <path d="M7.49984 11.667C7.49984 12.1272 7.87293 12.5003 8.33317 12.5003C8.79341 12.5003 9.1665 12.1272 9.1665 11.667C9.1665 11.2068 8.79341 10.8337 8.33317 10.8337C7.87293 10.8337 7.49984 11.2068 7.49984 11.667Z"/>
    <path d="M11.6665 12.5003C11.2063 12.5003 10.8332 12.1272 10.8332 11.667C10.8332 11.2068 11.2063 10.8337 11.6665 10.8337C12.1267 10.8337 12.4998 11.2068 12.4998 11.667C12.4998 12.1272 12.1267 12.5003 11.6665 12.5003Z"/>
    <path fill-rule="evenodd" clip-rule="evenodd" d="M17.0649 11.207L14.9969 11.4655C14.9988 11.5324 14.9998 11.5996 14.9998 11.667C14.9998 15.3489 12.0151 18.3337 8.33317 18.3337C7.78239 18.3337 7.24614 18.2667 6.73256 18.1401L3.15015 17.6923C2.26906 17.5821 1.65673 16.7608 1.80271 15.885L2.02246 14.5665L1.8601 13.2676C1.73347 12.754 1.6665 12.2178 1.6665 11.667C1.6665 7.98509 4.65127 5.00033 8.33317 5.00033C8.42787 5.00033 8.52211 5.0023 8.61586 5.00621C9.30061 3.06153 11.1531 1.66699 13.3332 1.66699C16.0946 1.66699 18.3332 3.90557 18.3332 6.66699C18.3332 7.07486 18.2842 7.47238 18.1913 7.85353L18.0814 8.73315L18.2326 9.64068C18.3592 10.3998 17.8285 11.1116 17.0649 11.207ZM13.3332 3.33366C15.1741 3.33366 16.6665 4.82604 16.6665 6.66699C16.6665 6.95369 16.6305 7.23078 16.5632 7.4945L16.5502 7.54525L16.4219 8.57163C16.4057 8.70152 16.4084 8.83309 16.4299 8.96221L16.5351 9.5936L14.7401 9.81798C14.1185 7.66034 12.4365 5.95199 10.2948 5.29359C10.8182 4.13747 11.9826 3.33366 13.3332 3.33366ZM8.33317 6.66699C5.57175 6.66699 3.33317 8.90557 3.33317 11.667C3.33317 12.0964 3.38711 12.512 3.48816 12.9079L3.50112 12.9587L3.67813 14.3748C3.69687 14.5247 3.69377 14.6765 3.66894 14.8255L3.46454 16.0519L7.04147 16.499L7.09223 16.512C7.48815 16.6131 7.90376 16.667 8.33317 16.667C11.0946 16.667 13.3332 14.4284 13.3332 11.667C13.3332 8.90557 11.0946 6.66699 8.33317 6.66699Z"/>
</svg>