<svg width="16" height="17" viewBox="0 0 16 17" fill="none" xmlns="http://www.w3.org/2000/svg">
<g id="icon / chat-alt">
<g id="icon">
<path d="M10.4997 8.49967C10.4997 8.95991 10.8728 9.33301 11.333 9.33301C11.7932 9.33301 12.1663 8.95991 12.1663 8.49967C12.1663 8.03944 11.7932 7.66634 11.333 7.66634C10.8728 7.66634 10.4997 8.03944 10.4997 8.49967Z" fill="#2F3237"/>
<path d="M7.99967 9.33301C7.53944 9.33301 7.16634 8.95991 7.16634 8.49967C7.16634 8.03944 7.53944 7.66634 7.99967 7.66634C8.45991 7.66634 8.83301 8.03944 8.83301 8.49967C8.83301 8.95991 8.45991 9.33301 7.99967 9.33301Z" fill="#2F3237"/>
<path d="M3.83301 8.49967C3.83301 8.95991 4.2061 9.33301 4.66634 9.33301C5.12658 9.33301 5.49967 8.95991 5.49967 8.49967C5.49967 8.03944 5.12658 7.66634 4.66634 7.66634C4.2061 7.66634 3.83301 8.03944 3.83301 8.49967Z" fill="#2F3237"/>
<path fill-rule="evenodd" clip-rule="evenodd" d="M7.99967 1.83301C4.31778 1.83301 1.33301 4.81778 1.33301 8.49967C1.33301 9.05456 1.40094 9.59448 1.52926 10.1112L1.6996 11.4739C1.70059 11.4819 1.70043 11.49 1.69911 11.4979L1.47051 12.8695C1.33816 13.6636 1.89334 14.4082 2.69219 14.5081L6.38813 14.9701C6.90486 15.0984 7.44479 15.1663 7.99967 15.1663C11.6816 15.1663 14.6663 12.1816 14.6663 8.49967C14.6663 4.81778 11.6816 1.83301 7.99967 1.83301ZM2.66634 8.49967C2.66634 5.55416 5.05416 3.16634 7.99967 3.16634C10.9452 3.16634 13.333 5.55416 13.333 8.49967C13.333 11.4452 10.9452 13.833 7.99967 13.833C7.54198 13.833 7.09867 13.7755 6.67617 13.6677L6.63557 13.6573L2.85757 13.1851C2.81058 13.1792 2.77792 13.1354 2.7857 13.0887L3.0143 11.7171C3.03681 11.582 3.03962 11.4444 3.02263 11.3085L2.84204 9.86378L2.83168 9.82318C2.72384 9.40068 2.66634 8.95737 2.66634 8.49967Z" fill="#2F3237"/>
</g>
</g>
</svg>
