<svg width="24" height="25" viewBox="0 0 24 25" fill="none" xmlns="http://www.w3.org/2000/svg">
<g clip-path="url(#clip0_501_11331)">
<path d="M20.7163 4.47393C21.2155 4.81757 21.5711 5.24462 21.7323 5.83752C21.7731 6.05927 21.7687 6.28454 21.7684 6.50933C21.7683 6.5877 21.7683 6.5877 21.7683 6.66765C21.7617 7.12049 21.7131 7.49626 21.4227 7.85991C21.4708 7.87018 21.519 7.88046 21.5686 7.89104C22.146 8.02046 22.731 8.2169 23.1102 8.70366C23.1602 8.87552 23.1273 9.0154 23.0809 9.18706C22.9805 9.31023 22.8841 9.35341 22.7352 9.40679C22.442 9.39071 22.2447 9.27806 22.0051 9.12416C21.5582 8.85022 21.0659 8.87654 20.559 8.87706C20.4842 8.87688 20.4094 8.87668 20.3347 8.87645C20.1785 8.87611 20.0222 8.87612 19.866 8.87636C19.6673 8.87664 19.4686 8.87584 19.2699 8.87475C19.1156 8.87406 18.9613 8.87402 18.8069 8.87417C18.7337 8.87414 18.6605 8.8739 18.5874 8.87343C17.9129 8.86958 17.2848 8.93092 16.77 9.41191C16.571 9.6248 16.4224 9.83983 16.3133 10.1099C16.2949 10.1554 16.2766 10.2008 16.2576 10.2476C16.1445 10.6741 16.165 11.1194 16.1648 11.5572C16.1647 11.6291 16.1645 11.7011 16.1643 11.773C16.1641 11.9232 16.164 12.0734 16.164 12.2236C16.164 12.4151 16.1634 12.6065 16.1626 12.798C16.162 12.9464 16.1619 13.0948 16.162 13.2432C16.1619 13.3138 16.1617 13.3843 16.1613 13.4549C16.1523 14.2253 16.1523 14.2253 16.5008 14.8912C16.6771 15.0324 16.8441 15.1207 17.0633 15.1724C17.0625 15.0886 17.0625 15.0886 17.0617 15.0032C17.057 14.4769 17.0535 13.9506 17.0512 13.4244C17.0499 13.1538 17.0483 12.8833 17.0456 12.6127C17.0431 12.3516 17.0417 12.0906 17.0411 11.8295C17.0406 11.7298 17.0398 11.6302 17.0385 11.5306C17.0368 11.3911 17.0366 11.2516 17.0367 11.1121C17.0359 11.0709 17.035 11.0296 17.0341 10.9871C17.0359 10.7812 17.0432 10.6983 17.1734 10.5305C17.3172 10.4235 17.4004 10.3949 17.5789 10.3912C17.7676 10.4406 17.881 10.5191 18.0008 10.6724C18.0184 10.8007 18.0246 10.9099 18.0221 11.0379C18.0221 11.0745 18.0222 11.1111 18.0222 11.1489C18.022 11.2696 18.0206 11.3903 18.0191 11.511C18.0188 11.5948 18.0185 11.6787 18.0183 11.7625C18.0176 11.9829 18.0158 12.2032 18.0137 12.4236C18.0114 12.6882 18.0106 12.9527 18.0095 13.2173C18.0077 13.619 18.0041 14.0207 18.0008 14.4224C19.0527 14.4224 20.1046 14.4224 21.1883 14.4224C21.1856 14.1544 21.1829 13.8864 21.1801 13.6103C21.1789 13.4405 21.1777 13.2707 21.1769 13.1008C21.1755 12.8313 21.1738 12.5618 21.1706 12.2923C21.1681 12.075 21.1667 11.8577 21.1661 11.6403C21.1656 11.5574 21.1648 11.4746 21.1635 11.3917C21.1618 11.2755 21.1616 11.1594 21.1617 11.0433C21.1609 11.009 21.16 10.9748 21.1591 10.9396C21.161 10.7569 21.1828 10.6792 21.2984 10.5348C21.4421 10.4229 21.5226 10.3949 21.7039 10.3912C21.8929 10.4406 22.0085 10.5166 22.1258 10.6724C22.1532 10.8171 22.1495 10.9599 22.1471 11.1068C22.1471 11.1507 22.1472 11.1946 22.1472 11.2399C22.147 11.385 22.1456 11.53 22.1441 11.6751C22.1438 11.7757 22.1435 11.8763 22.1433 11.977C22.1426 12.2418 22.1408 12.5065 22.1387 12.7713C22.1368 13.0415 22.1359 13.3117 22.135 13.582C22.133 14.1121 22.1298 14.6423 22.1258 15.1724C22.1857 15.1506 22.2456 15.1287 22.3054 15.1067C22.3388 15.0945 22.3721 15.0823 22.4065 15.0697C22.6895 14.956 22.7925 14.7604 22.922 14.4989C23.0144 14.2594 23.022 14.022 23.023 13.7674C23.0239 13.706 23.0248 13.6445 23.0258 13.5811C23.0271 13.4844 23.0282 13.3878 23.0282 13.2911C23.0283 13.1969 23.0301 13.1028 23.0318 13.0087C23.0325 12.9248 23.0325 12.9248 23.0331 12.8393C23.0717 12.646 23.1465 12.5759 23.2977 12.4537C23.4149 12.4225 23.4149 12.4225 23.5321 12.4244C23.5707 12.4238 23.6094 12.4232 23.6492 12.4225C23.8232 12.4687 23.8893 12.5478 24.0008 12.688C24.0342 12.8232 24.0326 12.954 24.0303 13.0927C24.0304 13.1317 24.0305 13.1707 24.0306 13.2109C24.0306 13.2935 24.03 13.376 24.0288 13.4585C24.0272 13.5832 24.0278 13.7077 24.0287 13.8324C24.0281 14.5647 23.8638 15.1004 23.3621 15.65C23.0763 15.9232 22.7366 16.086 22.3505 16.1604C22.3084 16.1686 22.2663 16.1767 22.2229 16.1852C22.1908 16.1913 22.1588 16.1974 22.1258 16.2037C22.1261 16.2657 22.1261 16.2657 22.1265 16.3289C22.1316 17.3343 22.1355 18.3398 22.138 19.3452C22.1392 19.8314 22.1408 20.3176 22.1435 20.8038C22.1458 21.2275 22.1473 21.6513 22.1479 22.075C22.1482 22.2994 22.1489 22.5238 22.1506 22.7482C22.1522 22.9594 22.1527 23.1706 22.1523 23.3818C22.1524 23.4593 22.1529 23.5369 22.1537 23.6144C22.1549 23.7203 22.1546 23.826 22.154 23.9319C22.1543 24.0208 22.1543 24.0208 22.1546 24.1114C22.1177 24.3098 22.0499 24.379 21.8914 24.5005C21.7915 24.53 21.7915 24.53 21.6904 24.5303C21.6518 24.531 21.6132 24.5316 21.5734 24.5323C21.5316 24.5318 21.4899 24.5314 21.4469 24.5309C21.3802 24.5315 21.3802 24.5315 21.3121 24.5321C21.1654 24.5331 21.0187 24.5325 20.8719 24.5317C20.7698 24.5318 20.6677 24.532 20.5656 24.5323C20.3517 24.5327 20.1379 24.5322 19.924 24.5311C19.6498 24.5298 19.3758 24.5305 19.1016 24.5319C18.8908 24.5328 18.6801 24.5325 18.4693 24.5319C18.3682 24.5317 18.2671 24.5319 18.166 24.5325C18.0248 24.5331 17.8835 24.5322 17.7423 24.5309C17.7005 24.5313 17.6588 24.5318 17.6158 24.5323C17.5771 24.5316 17.5385 24.531 17.4987 24.5303C17.4653 24.5302 17.432 24.5301 17.3976 24.53C17.2364 24.4825 17.1655 24.397 17.0633 24.2662C17.0345 24.1114 17.0345 24.1114 17.0351 23.9319C17.0349 23.8988 17.0347 23.8656 17.0345 23.8315C17.0341 23.7208 17.0354 23.6102 17.0367 23.4994C17.0368 23.42 17.0367 23.3405 17.0366 23.261C17.0365 23.0455 17.0379 22.8299 17.0395 22.6143C17.041 22.389 17.0411 22.1637 17.0414 21.9383C17.0422 21.5117 17.0441 21.085 17.0464 20.6584C17.049 20.1726 17.0503 19.6869 17.0515 19.2011C17.054 18.202 17.0581 17.2028 17.0633 16.2037C17.0313 16.1975 16.9992 16.1914 16.9662 16.1851C16.903 16.1728 16.903 16.1728 16.8386 16.1603C16.7968 16.1522 16.7551 16.1442 16.7121 16.1359C16.2077 16.0245 15.8216 15.7017 15.5267 15.2903C15.2859 14.9103 15.1668 14.5459 15.1694 14.0965C15.169 14.0568 15.1687 14.0172 15.1684 13.9764C15.1675 13.8466 15.1677 13.7169 15.168 13.5871C15.1678 13.4958 15.1675 13.4046 15.1672 13.3133C15.1668 13.1224 15.1669 12.9315 15.1674 12.7405C15.1679 12.4977 15.167 12.2549 15.1656 12.012C15.1648 11.8236 15.1648 11.6351 15.165 11.4466C15.1651 11.3572 15.1648 11.2678 15.1642 11.1783C15.1587 10.2027 15.3338 9.41164 16.0387 8.69103C16.5361 8.21602 17.0987 7.99049 17.7664 7.85991C17.7384 7.81447 17.7104 7.76903 17.6815 7.72222C17.4626 7.33338 17.4135 6.97605 17.4178 6.53276C17.4182 6.4807 17.4186 6.42864 17.4191 6.37499C17.4333 5.70509 17.6308 5.25296 18.092 4.76305C18.7892 4.10961 19.8961 3.97966 20.7163 4.47393ZM18.5944 5.68883C18.3438 6.03774 18.3396 6.52352 18.3992 6.93706C18.4745 7.24007 18.6528 7.47799 18.9081 7.65538C19.2165 7.83098 19.4739 7.89696 19.8289 7.85991C20.1657 7.76091 20.4134 7.57975 20.6375 7.31206C20.8622 6.88687 20.8606 6.37899 20.736 5.91973C20.6072 5.61941 20.3345 5.37227 20.0465 5.22539C19.4287 5.03896 18.9933 5.23191 18.5944 5.68883ZM18.0008 15.4068C18.0008 18.0983 18.0008 20.7899 18.0008 23.563C18.3721 23.563 18.7433 23.563 19.1258 23.563C19.1258 20.8715 19.1258 18.1799 19.1258 15.4068C18.7546 15.4068 18.3833 15.4068 18.0008 15.4068ZM20.0633 15.4068C20.0633 18.0983 20.0633 20.7899 20.0633 23.563C20.4346 23.563 20.8058 23.563 21.1883 23.563C21.1883 20.8715 21.1883 18.1799 21.1883 15.4068C20.8171 15.4068 20.4458 15.4068 20.0633 15.4068Z" fill="#2C59C8"/>
<path d="M11.2172 7.58965C11.7 7.95878 11.9972 8.33812 12.1401 8.93731C12.1547 9.07332 12.1579 9.20779 12.1576 9.34453C12.1576 9.38137 12.1576 9.41821 12.1576 9.45616C12.15 9.84961 12.0384 10.1831 11.8588 10.5311C11.8918 10.5374 11.9248 10.5437 11.9588 10.5503C12.7651 10.7261 13.3692 11.1258 13.8391 11.8046C14.1082 12.2391 14.2642 12.6822 14.2623 13.1951C14.2625 13.2297 14.2628 13.2643 14.263 13.2999C14.2637 13.413 14.2636 13.5262 14.2635 13.6393C14.2637 13.7187 14.2639 13.798 14.2641 13.8774C14.2645 14.0433 14.2645 14.2092 14.2642 14.3751C14.264 14.5869 14.2647 14.7986 14.2658 15.0103C14.2665 15.1741 14.2666 15.3379 14.2664 15.5017C14.2664 15.5797 14.2667 15.6577 14.2672 15.7357C14.2706 16.3755 14.1889 16.8136 13.7807 17.3279C13.7572 17.358 13.7337 17.388 13.7095 17.4189C13.4317 17.7332 12.9914 17.9713 12.5745 18.0117C12.5369 18.0154 12.4994 18.0192 12.4606 18.0231C12.418 18.027 12.418 18.027 12.3744 18.0311C12.3748 18.0789 12.3748 18.0789 12.3751 18.1278C12.3803 18.9043 12.3841 19.6809 12.3866 20.4575C12.3878 20.8331 12.3894 21.2086 12.3921 21.5841C12.3944 21.9115 12.396 22.2388 12.3965 22.5661C12.3968 22.7395 12.3975 22.9128 12.3992 23.0861C12.4011 23.2796 12.4011 23.473 12.401 23.6665C12.4023 23.7527 12.4023 23.7527 12.4036 23.8406C12.4013 24.2215 12.4013 24.2215 12.2812 24.4182C12.0912 24.5281 11.9461 24.5328 11.7299 24.5301C11.6687 24.5308 11.6687 24.5308 11.6062 24.5314C11.4717 24.5324 11.3371 24.5317 11.2026 24.5309C11.1089 24.5311 11.0152 24.5313 10.9215 24.5316C10.7252 24.532 10.529 24.5315 10.3328 24.5304C10.0814 24.529 9.83001 24.5298 9.57858 24.5312C9.38515 24.532 9.19174 24.5318 8.99831 24.5312C8.90561 24.531 8.81291 24.5312 8.72022 24.5318C8.5906 24.5323 8.46107 24.5314 8.33146 24.5301C8.29322 24.5306 8.25499 24.5311 8.21559 24.5316C8.03644 24.5282 7.9378 24.5094 7.78015 24.4182C7.63294 24.177 7.65626 23.9437 7.66032 23.6665C7.66029 23.6057 7.66025 23.5448 7.66022 23.4822C7.66015 23.3157 7.66153 23.1492 7.66317 22.9828C7.66463 22.8087 7.66477 22.6346 7.66505 22.4605C7.66577 22.1309 7.6677 21.8014 7.67005 21.4719C7.67267 21.0966 7.67396 20.7214 7.67513 20.3462C7.67758 19.5745 7.68171 18.8028 7.68693 18.0311C7.65847 18.0284 7.63 18.0258 7.60068 18.023C7.56307 18.0192 7.52546 18.0155 7.48672 18.0116C7.43097 18.0061 7.43097 18.0061 7.37409 18.0006C6.93251 17.9341 6.50284 17.6259 6.2338 17.2811C5.95111 16.8916 5.80115 16.5677 5.79831 16.0784C5.798 16.0441 5.79768 16.0099 5.79736 15.9745C5.79647 15.8621 5.79628 15.7496 5.79618 15.6371C5.79588 15.5581 5.79557 15.4791 5.79524 15.4002C5.79468 15.2347 5.7945 15.0693 5.79456 14.9039C5.79457 14.6935 5.79329 14.4832 5.79167 14.2728C5.79062 14.1096 5.79044 13.9464 5.79049 13.7832C5.79038 13.7057 5.78997 13.6282 5.78924 13.5508C5.78166 12.665 6.01663 11.9488 6.63792 11.2928C7.07936 10.8753 7.60221 10.6183 8.20255 10.5311C8.18618 10.4926 8.1698 10.4542 8.15293 10.4146C8.1316 10.3641 8.11027 10.3136 8.0883 10.2615C8.06709 10.2115 8.04588 10.1615 8.02403 10.1099C7.85205 9.67461 7.84592 9.09309 8.00041 8.6502C8.03424 8.57298 8.07024 8.49666 8.1088 8.42168C8.12578 8.38827 8.14276 8.35485 8.16026 8.32043C8.44007 7.82815 8.89511 7.47237 9.43302 7.30254C10.0545 7.15636 10.6819 7.23254 11.2172 7.58965ZM9.19242 8.55938C8.91478 8.91347 8.85488 9.2412 8.90568 9.68731C9.00532 9.98757 9.20358 10.2195 9.46818 10.3904C9.76994 10.54 10.1554 10.5426 10.4767 10.4503C10.7689 10.3126 10.9861 10.0947 11.1213 9.8012C11.22 9.47438 11.2003 9.13414 11.0619 8.82305C10.8909 8.52424 10.6358 8.34246 10.3119 8.23418C9.88629 8.17699 9.50006 8.2428 9.19242 8.55938ZM7.21525 12.1248C6.75325 12.6629 6.7422 13.2796 6.74156 13.9544C6.7414 14.0121 6.74124 14.0698 6.74108 14.1293C6.74085 14.2508 6.74074 14.3723 6.74074 14.4938C6.74064 14.6789 6.73979 14.864 6.7389 15.0492C6.73876 15.1677 6.73867 15.2861 6.73863 15.4046C6.73829 15.4595 6.73795 15.5145 6.73761 15.5711C6.73878 15.9968 6.75773 16.3857 7.03434 16.7281C7.20121 16.8841 7.45187 17.0467 7.68693 17.0467C7.6871 17.0001 7.68727 16.9536 7.68745 16.9056C7.68918 16.4669 7.69189 16.0282 7.69555 15.5896C7.6974 15.3641 7.69891 15.1385 7.69963 14.913C7.70034 14.6954 7.70195 14.4778 7.70419 14.2602C7.70489 14.1771 7.70526 14.094 7.7053 14.011C7.70541 13.8947 7.70668 13.7785 7.70822 13.6622C7.70798 13.6278 7.70774 13.5934 7.7075 13.558C7.71078 13.3982 7.7226 13.3114 7.82055 13.1827C7.9511 13.0875 8.04159 13.0689 8.20255 13.0623C8.3656 13.1078 8.47246 13.1639 8.57755 13.2967C8.59624 13.4079 8.59624 13.4079 8.59782 13.5407C8.59876 13.5911 8.59969 13.6416 8.60065 13.6935C8.60095 13.7464 8.60124 13.7993 8.60154 13.8539C8.60232 13.9026 8.6031 13.9513 8.6039 14.0014C8.60662 14.1835 8.60813 14.3656 8.60978 14.5477C8.61461 14.9547 8.61945 15.3617 8.62443 15.7811C9.55255 15.7811 10.4807 15.7811 11.4369 15.7811C11.4449 14.9719 11.4449 14.9719 11.4509 14.1627C11.4523 14.0613 11.4537 13.9599 11.4552 13.8585C11.4553 13.8058 11.4553 13.7531 11.4554 13.6988C11.4563 13.6484 11.4573 13.598 11.4582 13.546C11.4588 13.4804 11.4588 13.4804 11.4595 13.4135C11.4912 13.2612 11.5513 13.2053 11.6713 13.1092C11.8747 13.0486 12.0002 13.0551 12.1869 13.1561C12.2627 13.2075 12.2627 13.2075 12.3276 13.2967C12.3421 13.4203 12.3481 13.5331 12.3478 13.6569C12.3485 13.7118 12.3485 13.7118 12.3493 13.7678C12.3507 13.8888 12.3511 14.0097 12.3515 14.1307C12.3523 14.2146 12.3532 14.2985 12.3541 14.3824C12.3563 14.6031 12.3577 14.8239 12.3589 15.0447C12.3603 15.27 12.3625 15.4953 12.3646 15.7205C12.3687 16.1626 12.3718 16.6046 12.3744 17.0467C12.4416 17.0257 12.5087 17.0043 12.5757 16.9828C12.613 16.9709 12.6504 16.9591 12.6889 16.9468C12.9651 16.842 13.1053 16.6528 13.2293 16.3979C13.3041 16.1858 13.3179 15.9705 13.3187 15.7472C13.319 15.6955 13.3193 15.6438 13.3196 15.5906C13.3197 15.5354 13.3197 15.4802 13.3198 15.4233C13.32 15.3657 13.3201 15.3081 13.3203 15.2488C13.3205 15.1271 13.3206 15.0053 13.3206 14.8836C13.3207 14.6987 13.3216 14.5139 13.3225 14.329C13.3226 14.2104 13.3227 14.0917 13.3227 13.9731C13.3232 13.8911 13.3232 13.8911 13.3238 13.8074C13.3219 13.1376 13.233 12.5197 12.7611 12.0106C12.2056 11.4986 11.5192 11.4613 10.8032 11.4607C10.7122 11.4605 10.7122 11.4605 10.6193 11.4602C10.4913 11.4599 10.3633 11.4598 10.2353 11.4599C10.0727 11.4599 9.91009 11.4592 9.74746 11.4584C9.59059 11.4578 9.43371 11.4578 9.27683 11.4578C9.19031 11.4572 9.19031 11.4572 9.10204 11.4567C8.3768 11.4586 7.73593 11.5857 7.21525 12.1248ZM8.62443 16.7186C8.62443 18.977 8.62443 21.2354 8.62443 23.5623C8.9338 23.5623 9.24318 23.5623 9.56193 23.5623C9.56193 21.3039 9.56193 19.0454 9.56193 16.7186C9.25255 16.7186 8.94318 16.7186 8.62443 16.7186ZM10.4994 16.7186C10.4994 18.977 10.4994 21.2354 10.4994 23.5623C10.8088 23.5623 11.1182 23.5623 11.4369 23.5623C11.4369 21.3039 11.4369 19.0454 11.4369 16.7186C11.1276 16.7186 10.8182 16.7186 10.4994 16.7186Z" fill="#2C58C7"/>
<path d="M4.38379 16.4726C4.47555 16.5501 4.55817 16.6308 4.64068 16.718C4.67168 16.748 4.70268 16.7781 4.73462 16.8091C5.20434 17.2922 5.45259 17.9101 5.45043 18.5798C5.45067 18.6188 5.45091 18.6578 5.45116 18.698C5.45181 18.8259 5.45177 18.9538 5.45166 19.0817C5.45184 19.1713 5.45204 19.261 5.45227 19.3506C5.45261 19.5382 5.4526 19.7258 5.45235 19.9134C5.45208 20.1527 5.45288 20.3919 5.45396 20.6311C5.45466 20.8162 5.4547 21.0013 5.45455 21.1865C5.45457 21.2746 5.45482 21.3628 5.45529 21.4509C5.45945 22.3323 5.45945 22.3323 5.29693 22.7648C5.27808 22.8155 5.25923 22.8662 5.2398 22.9185C4.88991 23.6449 4.31468 24.131 3.56164 24.408C3.00457 24.5847 2.27621 24.5807 1.73443 24.3586C1.68954 24.3408 1.64464 24.3231 1.59839 24.3047C0.925239 24.005 0.417394 23.4557 0.146543 22.7736C0.031925 22.462 -0.00708909 22.1893 -0.00823879 21.8579C-0.00854682 21.8191 -0.00885484 21.7802 -0.0091722 21.7402C-0.0100941 21.612 -0.0106433 21.4839 -0.0111113 21.3557C-0.0113023 21.3116 -0.0114934 21.2676 -0.0116903 21.2223C-0.012667 20.9891 -0.0133377 20.7558 -0.0137777 20.5226C-0.0142947 20.2831 -0.0159058 20.0436 -0.0177703 19.8042C-0.019003 19.6188 -0.0193889 19.4335 -0.0195566 19.2482C-0.0197833 19.16 -0.0203235 19.0718 -0.0211989 18.9836C-0.0294358 18.0983 0.138341 17.37 0.770566 16.7062C1.75998 15.7186 3.27382 15.6948 4.38379 16.4726ZM1.74908 17.3654C1.54884 17.6414 1.44374 17.9236 1.45318 18.2648C1.53084 18.6897 1.70984 18.9933 2.06256 19.2492C2.39212 19.4233 2.69548 19.48 3.05572 19.381C3.4362 19.2503 3.66071 19.0365 3.87896 18.7014C4.00634 18.3638 4.02143 18.039 3.88812 17.7021C3.72072 17.3487 3.4623 17.0914 3.09381 16.9523C2.56041 16.8443 2.12935 16.9675 1.74908 17.3654ZM0.937558 19.5773C0.937558 20.2889 0.937558 21.0005 0.937558 21.7336C1.2073 21.5034 1.2073 21.5034 1.46179 21.2608C1.49457 21.2279 1.52735 21.1949 1.56112 21.161C1.61066 21.1109 1.61066 21.1109 1.66119 21.0598C1.69548 21.0253 1.72977 20.9907 1.7651 20.9552C1.84874 20.871 1.93226 20.7867 2.01568 20.7023C1.9436 20.5311 1.84039 20.4218 1.70935 20.2914C1.66756 20.2498 1.62578 20.2081 1.58273 20.1651C1.53901 20.122 1.4953 20.0788 1.45025 20.0344C1.40589 19.9901 1.36155 19.9458 1.31723 19.9014C1.14879 19.697 1.14879 19.697 0.937558 19.5773ZM4.24507 19.7796C4.21543 19.8094 4.18579 19.8392 4.15526 19.8699C4.10861 19.9166 4.10861 19.9166 4.06103 19.9641C3.95769 20.0675 3.85451 20.1711 3.75134 20.2746C3.67995 20.3461 3.60855 20.4175 3.53715 20.489C3.34878 20.6775 3.16056 20.8662 2.97236 21.0549C2.78047 21.2473 2.58846 21.4395 2.39645 21.6318C2.0194 22.0093 1.64249 22.387 1.26568 22.7648C1.30194 22.8176 1.33847 22.8701 1.37511 22.9226C1.39542 22.9519 1.41574 22.9812 1.43666 23.0114C1.52619 23.1266 1.62812 23.1959 1.75201 23.2717C1.79395 23.2981 1.83588 23.3245 1.87909 23.3517C2.1604 23.4946 2.42623 23.5331 2.73639 23.5324C2.77145 23.5323 2.80652 23.5323 2.84264 23.5322C3.1174 23.5261 3.32832 23.4765 3.56256 23.3273C3.61283 23.2974 3.6631 23.2674 3.7149 23.2365C4.07955 22.963 4.39667 22.5763 4.46642 22.1147C4.5008 21.8281 4.50615 21.5457 4.50464 21.2573C4.50457 21.209 4.5045 21.1607 4.50443 21.1109C4.50417 20.9581 4.50359 20.8053 4.50299 20.6525C4.50275 20.5483 4.50254 20.4441 4.50235 20.3399C4.50183 20.0857 4.50105 19.8315 4.50006 19.5773C4.39251 19.5773 4.31764 19.7072 4.24507 19.7796Z" fill="#2C59C8"/>
<path d="M20.4844 0.500889C20.6668 0.576787 20.8311 0.680267 21 0.782139C21.0672 0.820033 21.1346 0.857741 21.202 0.895298C21.2733 0.935666 21.3447 0.976071 21.416 1.01651C21.45 1.03539 21.484 1.05426 21.5191 1.07371C21.7376 1.20004 21.8991 1.31391 22.0312 1.53214C22.0395 1.84195 21.9222 2.05817 21.7676 2.32022C21.7464 2.35694 21.7253 2.39365 21.7035 2.43147C21.6416 2.53838 21.5787 2.64468 21.5156 2.75089C21.499 2.77949 21.4823 2.80808 21.4652 2.83754C21.2075 3.27954 21.2075 3.27954 20.9531 3.40714C20.8091 3.43165 20.719 3.43675 20.5931 3.3577C20.4897 3.27402 20.4038 3.19907 20.3438 3.07901C20.323 2.87123 20.3424 2.73415 20.4384 2.55204C20.4557 2.51887 20.473 2.48571 20.4907 2.45153C20.5041 2.42657 20.5175 2.40161 20.5312 2.37589C20.5053 2.3814 20.4793 2.38691 20.4525 2.39259C19.6264 2.5673 18.7983 2.73105 17.9696 2.89251C17.7801 2.92944 17.5907 2.96645 17.4013 3.00345C17.0307 3.0758 16.6601 3.14807 16.2896 3.22031C15.9868 3.27934 15.684 3.3384 15.3812 3.39748C12.6531 3.92981 9.9247 4.46102 7.19622 4.99167C7.01497 5.02692 6.83371 5.06217 6.65246 5.09743C6.38827 5.14882 6.12407 5.2002 5.85988 5.25158C5.81724 5.25988 5.7746 5.26817 5.73067 5.27671C5.27783 5.36477 4.82497 5.45278 4.37207 5.54061C4.33338 5.54812 4.29469 5.55562 4.25482 5.56335C4.10242 5.59291 3.95002 5.62246 3.79761 5.65201C3.38292 5.7324 2.96828 5.81303 2.55375 5.89428C2.29069 5.94584 2.02758 5.99714 1.76445 6.04835C1.66079 6.06858 1.55715 6.08892 1.45353 6.10937C1.31519 6.13667 1.17678 6.1636 1.03836 6.19044C0.999059 6.1983 0.959761 6.20616 0.919272 6.21426C0.364318 6.32069 0.364318 6.32069 0.146484 6.17862C0.011116 6.04325 0.00195431 6.00481 -0.0175781 5.80948C-0.0131706 5.63601 0.0231987 5.51637 0.147476 5.38672C0.258301 5.31313 0.358523 5.28851 0.488048 5.25832C0.538346 5.24656 0.588643 5.23479 0.640466 5.22267C0.889872 5.16801 1.13982 5.11713 1.39046 5.06847C1.47604 5.05167 1.47604 5.05167 1.56335 5.03453C1.71994 5.00382 1.87655 4.97324 2.03317 4.94273C2.20232 4.90974 2.37143 4.87658 2.54056 4.84344C2.87114 4.7787 3.20176 4.71412 3.53239 4.64959C3.80328 4.59672 4.07414 4.54378 4.345 4.4908C4.38382 4.48321 4.42264 4.47561 4.46263 4.46779C4.50159 4.46017 4.54056 4.45255 4.5807 4.4447C7.37344 3.89842 10.1668 3.3553 12.9603 2.8127C14.5002 2.51358 16.0399 2.21361 17.5797 1.9134C17.6718 1.89543 17.764 1.87746 17.8562 1.85948C18.576 1.71914 19.2958 1.57878 20.0156 1.43839C19.97 1.37191 19.97 1.37191 19.9234 1.30409C19.7914 1.10056 19.798 1.01969 19.8281 0.782139C19.9995 0.513616 20.1714 0.448891 20.4844 0.500889Z" fill="#2C59C8"/>
<path d="M23.7186 10.3444C23.8584 10.4063 23.8971 10.453 23.9998 10.5788C24.0345 10.7263 24.032 10.8528 23.9998 11.0006C23.9157 11.1352 23.86 11.2112 23.7186 11.2819C23.3862 11.3091 23.3862 11.3091 23.2059 11.194C23.0485 11.0319 23.0403 10.9045 23.0435 10.685C23.0623 10.5788 23.0623 10.5788 23.1795 10.4352C23.3526 10.3181 23.5164 10.2959 23.7186 10.3444Z" fill="#2D59C7"/>
</g>
<defs>
<clipPath id="clip0_501_11331">
<rect width="24" height="24" fill="white" transform="translate(0 0.5)"/>
</clipPath>
</defs>
</svg>
