<svg width="42" height="42" viewBox="0 0 42 42" xmlns="http://www.w3.org/2000/svg">
<path fill-rule="evenodd" clip-rule="evenodd" d="M26.1243 3.0625C29.8983 3.0625 32.9577 6.12189 32.9577 9.89583V32.1042C32.9577 35.8781 29.8983 38.9375 26.1243 38.9375H15.8743C12.1004 38.9375 9.04102 35.8781 9.04102 32.1042V9.89583C9.04102 6.12189 12.1004 3.0625 15.8743 3.0625H26.1243ZM12.4577 9.89583C12.4577 8.00886 13.9874 6.47917 15.8743 6.47917H16.8743C17.2261 7.47443 18.1753 8.1875 19.291 8.1875H22.7077C23.8234 8.1875 24.7726 7.47443 25.1244 6.47917H26.1243C28.0113 6.47917 29.541 8.00886 29.541 9.89583V32.1042C29.541 33.9911 28.0113 35.5208 26.1243 35.5208H15.8743C13.9874 35.5208 12.4577 33.9911 12.4577 32.1042V9.89583Z"/>
</svg>
