<svg width="40" height="40" viewBox="0 0 40 40" fill="none" xmlns="http://www.w3.org/2000/svg">
<path d="M18.7348 3.64898C20.7607 2.94984 23.1971 3.05037 26.06 3.7271L26.0609 3.72613L28.8441 4.37652H28.8451C32.433 5.21572 35.0296 6.57511 36.4398 8.8482C37.8501 11.1213 37.9128 14.049 37.0736 17.6285L35.4408 24.5953C34.7206 27.6898 33.6111 30.0459 31.8588 31.5455C30.0758 33.0713 27.7877 33.5763 25.0209 33.313V33.314C24.1267 33.2425 23.1738 33.0828 22.1654 32.8394V32.8384L19.3686 32.1734V32.1724C15.7988 31.3248 13.2087 29.9659 11.7992 27.6968C10.389 25.4263 10.3211 22.5031 11.1606 18.9224L12.7934 11.939V11.938C13.1364 10.48 13.5578 9.16769 14.1029 8.05914C15.1667 5.86182 16.6633 4.36388 18.7348 3.64898ZM25.6039 5.67339C22.9019 5.03429 20.8977 5.01828 19.3871 5.5396C17.923 6.04489 16.7869 7.10333 15.9008 8.93609L15.8979 8.94195C15.4431 9.86667 15.0642 11.0209 14.7406 12.3961L13.1078 19.3785H13.1068C12.3131 22.7641 12.5038 25.0409 13.4975 26.6412C14.4921 28.2426 16.4519 29.4248 19.8314 30.2271H19.8324L22.6322 30.8941L22.6352 30.8951C23.5601 31.1183 24.4077 31.2581 25.1801 31.3199C25.1853 31.3203 25.1905 31.3213 25.1957 31.3218C27.6216 31.5551 29.3121 31.093 30.559 30.0259C31.8395 28.9299 32.8129 27.0613 33.4926 24.1402L33.4936 24.1392L35.1264 17.1724C35.9204 13.7855 35.7343 11.5047 34.7406 9.90289C33.7468 8.30103 31.7844 7.11792 28.3891 6.32378L25.6059 5.67437L25.6039 5.67339Z" fill="#F3B944"/>
<path d="M14.8142 7.51747C15.1864 7.44704 15.5672 7.59289 15.7966 7.89442C16.0258 8.19593 16.0643 8.6014 15.8972 8.9413C15.4427 9.86558 15.0634 11.0191 14.74 12.3934L14.7409 12.3944L13.1071 19.3778C12.3133 22.7638 12.5039 25.0412 13.4978 26.6415C14.4925 28.2427 16.4524 29.4242 19.8318 30.2265V30.2274L22.6316 30.8934L22.6345 30.8944C23.5595 31.1177 24.4079 31.2584 25.1804 31.3202C25.6034 31.3542 25.9588 31.6511 26.0671 32.0614C26.1754 32.472 26.0124 32.9063 25.6609 33.1444C24.5231 33.9152 23.1283 34.5339 21.4939 35.0673L21.4929 35.0663L18.863 35.9335L18.8571 35.9354C15.456 37.032 12.6131 37.2076 10.2946 36.0214C8.12134 34.9093 6.64748 32.7225 5.56125 29.6513L5.34933 29.0253L3.21554 22.4413V22.4403C2.11921 19.04 1.93879 16.1933 3.11984 13.8729C4.30178 11.5513 6.70767 10.0285 10.1101 8.93153L12.738 8.0663L12.7478 8.06337C13.4461 7.84194 14.1401 7.64502 14.8142 7.51747ZM10.7292 10.8329L10.7234 10.8349C7.50985 11.871 5.72443 13.1649 4.90207 14.7802C4.07897 16.3973 4.08193 18.6099 5.11886 21.8261H5.11789L7.25168 28.4071L7.44992 28.994C8.45907 31.8437 9.69157 33.4664 11.2058 34.2411C12.8206 35.0673 15.0285 35.0678 18.2439 34.0311L20.8708 33.1669L20.8737 33.1659C21.2509 33.0428 21.6077 32.9154 21.946 32.786L19.3689 32.1727C15.7987 31.3251 13.208 29.9655 11.7986 27.6962C10.3884 25.4257 10.3204 22.5023 11.1599 18.9218L12.7937 11.9384V11.9374C12.9558 11.2485 13.1358 10.5922 13.3376 9.9745L10.7292 10.8329Z" fill="#F3B944"/>
<path d="M29.3961 15.2979C29.9315 15.4337 30.2555 15.9774 30.1198 16.5128C29.984 17.0479 29.4401 17.3719 28.9049 17.2364L29.3961 15.2979ZM20.0973 13.9708C20.2247 13.469 20.7112 13.1533 21.2125 13.2276L21.3131 13.2471L29.3961 15.2979L29.15 16.2667L28.9049 17.2364L20.8209 15.1866L20.7233 15.1563C20.2471 14.9827 19.97 14.4727 20.0973 13.9708Z" fill="#F3B944"/>
<path d="M18.4649 20.419C18.6014 19.8839 19.1456 19.5608 19.6807 19.6973L24.5147 20.9307C25.0494 21.0674 25.3727 21.6116 25.2363 22.1465C25.0998 22.6816 24.5547 23.0047 24.0195 22.8682L19.1865 21.6348C18.6514 21.4982 18.3284 20.9541 18.4649 20.419Z" fill="#F3B944"/>
</svg>
