<svg width="25" height="24" viewBox="0 0 25 24" fill="none" xmlns="http://www.w3.org/2000/svg">
<path d="M18.2501 7.16C18.1901 7.15 18.1201 7.15 18.0601 7.16C16.6801 7.11 15.5801 5.98 15.5801 4.58C15.5801 3.15 16.7301 2 18.1601 2C19.5901 2 20.7401 3.16 20.7401 4.58C20.7301 5.98 19.6301 7.11 18.2501 7.16Z" stroke="#50545F" stroke-width="1.8" stroke-linecap="round" stroke-linejoin="round"/>
<path d="M17.2195 14.4402C18.5895 14.6702 20.0995 14.4302 21.1595 13.7202C22.5695 12.7802 22.5695 11.2402 21.1595 10.3002C20.0895 9.59016 18.5595 9.35016 17.1895 9.59016" stroke="#50545F" stroke-width="1.8" stroke-linecap="round" stroke-linejoin="round"/>
<path d="M6.21852 7.16C6.27852 7.15 6.34852 7.15 6.40852 7.16C7.78852 7.11 8.88852 5.98 8.88852 4.58C8.88852 3.15 7.73852 2 6.30852 2C4.87852 2 3.72852 3.16 3.72852 4.58C3.73852 5.98 4.83852 7.11 6.21852 7.16Z" stroke="#50545F" stroke-width="1.8" stroke-linecap="round" stroke-linejoin="round"/>
<path d="M7.24945 14.4402C5.87945 14.6702 4.36945 14.4302 3.30945 13.7202C1.89945 12.7802 1.89945 11.2402 3.30945 10.3002C4.37945 9.59016 5.90945 9.35016 7.27945 9.59016" stroke="#50545F" stroke-width="1.8" stroke-linecap="round" stroke-linejoin="round"/>
<path d="M12.2501 14.6307C12.1901 14.6207 12.1201 14.6207 12.0601 14.6307C10.6801 14.5807 9.58008 13.4507 9.58008 12.0507C9.58008 10.6207 10.7301 9.4707 12.1601 9.4707C13.5901 9.4707 14.7401 10.6307 14.7401 12.0507C14.7301 13.4507 13.6301 14.5907 12.2501 14.6307Z" stroke="#50545F" stroke-width="1.8" stroke-linecap="round" stroke-linejoin="round"/>
<path d="M9.3407 17.7813C7.9307 18.7213 7.9307 20.2613 9.3407 21.2013C10.9407 22.2713 13.5607 22.2713 15.1607 21.2013C16.5707 20.2613 16.5707 18.7213 15.1607 17.7813C13.5707 16.7213 10.9407 16.7213 9.3407 17.7813Z" stroke="#50545F" stroke-width="1.8" stroke-linecap="round" stroke-linejoin="round"/>
</svg>
