<svg width="34" height="33" viewBox="0 0 34 33" xmlns="http://www.w3.org/2000/svg">
<path fill-rule="evenodd" clip-rule="evenodd" d="M17.0009 0C7.79615 0 0.334229 7.46192 0.334229 16.6667V21.6402C0.333902 21.6592 0.333904 21.6783 0.334229 21.6972V25.6863C0.334229 28.0687 2.26555 30 4.64795 30C7.03036 30 8.96168 28.0687 8.96168 25.6863V22.0845C8.96168 18.8482 6.1036 17.3492 3.66756 17.8463V16.6667C3.66756 9.30287 9.6371 3.33333 17.0009 3.33333C24.3647 3.33333 30.3342 9.30287 30.3342 16.6667V17.8287C27.8989 17.3309 25.0401 18.8253 25.0401 22.0648V25.6863C25.0401 26.4804 25.2547 27.2244 25.629 27.8634C24.1538 28.5969 22.1407 29.1667 19.5009 29.1667C18.5804 29.1667 17.8342 29.9129 17.8342 30.8334C17.8342 31.7539 18.5804 32.5001 19.5009 32.5001C23.5741 32.5001 26.5934 31.351 28.6616 29.9448C28.887 29.9811 29.1182 30 29.3538 30C31.7362 30 33.6676 28.0687 33.6676 25.6863V21.6963C33.6679 21.678 33.6679 21.6596 33.6676 21.6411V16.6667C33.6676 7.46192 26.2056 0 17.0009 0ZM29.0875 26.63C29.1722 26.6539 29.2615 26.6667 29.3538 26.6667C29.8953 26.6667 30.3342 26.2277 30.3342 25.6863V21.8137C30.2657 21.4991 30.1241 21.3397 29.9946 21.2469C29.8262 21.1261 29.5774 21.0509 29.2942 21.0722C29.0109 21.0935 28.7762 21.205 28.6277 21.3497C28.5019 21.4722 28.3734 21.6772 28.3734 22.0648V25.6863C28.3734 26.0517 28.5734 26.3704 28.8698 26.539C28.9441 26.5641 29.0169 26.5944 29.0875 26.63ZM3.66756 25.6863V21.8211C3.73852 21.5117 3.87999 21.3542 4.0096 21.2622C4.17885 21.1422 4.4276 21.0684 4.7099 21.0907C4.9922 21.113 5.22629 21.2248 5.37461 21.37C5.50061 21.4932 5.62835 21.6986 5.62835 22.0845V25.6863C5.62835 26.2277 5.18941 26.6667 4.64795 26.6667C4.1065 26.6667 3.66756 26.2277 3.66756 25.6863Z"/>
</svg>
