<svg width="40" height="41" viewBox="0 0 40 41" xmlns="http://www.w3.org/2000/svg">
<path d="M38.8281 20.5833H31.2135V14.224C31.2135 13.5768 30.6888 13.0521 30.0416 13.0521H27.8852C26.9961 11.1506 25.4593 9.66008 23.5988 8.81281C24.428 7.92922 24.9375 6.74203 24.9375 5.4375C24.9375 2.715 22.7226 0.5 20 0.5C17.2774 0.5 15.0625 2.715 15.0625 5.4375C15.0625 6.74203 15.572 7.92914 16.4012 8.81281C14.5406 9.66008 13.0039 11.1506 12.1148 13.0521H9.95828C9.31109 13.0521 8.78641 13.5768 8.78641 14.224V20.5833H1.17188C0.524687 20.5833 0 21.108 0 21.7552V26.776C0 27.4232 0.524687 27.9479 1.17188 27.9479H2.51047V39.3281C2.51047 39.9753 3.03516 40.5 3.68234 40.5H36.3177C36.9648 40.5 37.4895 39.9753 37.4895 39.3281V27.9479H38.8281C39.4753 27.9479 40 27.4232 40 26.776V21.7552C40 21.108 39.4753 20.5833 38.8281 20.5833ZM28.8698 15.3959V20.5833H21.1719V17.9895C21.1719 16.5594 22.3355 15.3959 23.7656 15.3959H28.8698ZM20 2.84375C21.4302 2.84375 22.5938 4.00734 22.5938 5.4375C22.5938 6.86766 21.4302 8.03125 20 8.03125C18.5698 8.03125 17.4062 6.86766 17.4062 5.4375C17.4062 4.00734 18.5698 2.84375 20 2.84375ZM20 10.375C22.0898 10.375 24.011 11.4038 25.1848 13.0521H23.7656C22.2583 13.0521 20.9063 13.7312 20 14.7993C19.0936 13.7312 17.7417 13.0521 16.2344 13.0521H14.8152C15.989 11.4038 17.9102 10.375 20 10.375ZM11.1302 15.3959H16.2344C17.6646 15.3959 18.8281 16.5595 18.8281 17.9895V20.5833H11.1302V15.3959ZM35.1458 38.1562H4.85422V27.9479H35.1458V38.1562ZM37.6562 25.6041H2.34375V22.927H37.6562V25.6041Z" />
</svg>
